<svg xmlns="http://www.w3.org/2000/svg" viewBox="0 0 32 32" width="32" height="32">
  <defs>
    <linearGradient id="grad" x1="0%" y1="0%" x2="100%" y2="100%">
      <stop offset="0%" style="stop-color:#e53e3e"/>
      <stop offset="100%" style="stop-color:#ed8936"/>
    </linearGradient>
  </defs>
  <!-- Background circle -->
  <circle cx="16" cy="16" r="15" fill="#1a365d"/>
  <!-- Wrench icon -->
  <g transform="translate(6, 6)">
    <path d="M18 4l-4 4-2-2 4-4c-2.5-1.5-5.8-1-7.8 1.5-1.5 2-1.5 4.5 0 6.5l-6 6c-.8.8-.8 2 0 2.8l1 1c.8.8 2 .8 2.8 0l6-6c2 1.5 4.5 1.5 6.5 0 2.5-2 3-5.3 1.5-7.8z" fill="url(#grad)"/>
  </g>
</svg>
